# xmcd CD database file
#
# Track frame offsets:
#	150
#	12179
#	24172
#	38788
#	52078
#	65595
#	79892
#	91280
#	104864
#	124432
#	136414
#	164030
#	175773
#	187812
#	202078
#	215552
#	230156
#	244439
#	261823
#	284042
#
# Disc length: 4000 seconds
#
# Revision: 0
# Processed by: cddbd v1.5.2PL0 Copyright (c) Steve Scherf et al.
# Submitted via: CDex 1.70beta2
#
DISCID=390f9e14
DTITLE=Various Artist - Best Of The Blues [CD2]
DYEAR=2006
DGENRE=Blues
TTITLE0=Robert Johnson - Hellhound On My Trail
TTITLE1=Lightnin' Hopkins - Shotgun Blues
TTITLE2=Muddy Waters - Rock Me
TTITLE3=John Lee Hooker - Come Back Baby
TTITLE4=Leadbelly - C. C. Rider
TTITLE5=Memphis Slim - Boogies Woogie Memphis
TTITLE6=Big Bill Broonzy - Good Time Tonight
TTITLE7=Bukka White - Shake 'Em On Down
TTITLE8=Son House - Death Letter Blues
TTITLE9=Big Joe Williams - Don't You Leave Me Here
TTITLE10=Willie Dixon - Back Door Man
TTITLE11=T-Bone Walker - Evil Hearted Woman
TTITLE12=Brownie Mcghee - Key To The Highway No. 1
TTITLE13=Freddie King - Dust My Broom
TTITLE14=Taj Mahal - Six Days On The Road
TTITLE15=Chicken Shack - I'd Rather Go Blind
TTITLE16=Manfred Mann - I've Got My Mojo Working
TTITLE17=Fleetwood Mac - Need Your Love So Bad
TTITLE18=George Thorogood and The Destroyers - Bad To The Bone
TTITLE19=Johnny Winter - Rock and Roll, Hoochie Koo
EXTD=YEAR: 2006
EXTT0=
EXTT1=
EXTT2=
EXTT3=
EXTT4=
EXTT5=
EXTT6=
EXTT7=
EXTT8=
EXTT9=
EXTT10=
EXTT11=
EXTT12=
EXTT13=
EXTT14=
EXTT15=
EXTT16=
EXTT17=
EXTT18=
EXTT19=
PLAYORDER=
